<mxfile host="app.diagrams.net" modified="2022-05-13T06:40:24.825Z" agent="5.0 (Windows NT 10.0; Win64; x64) AppleWebKit/537.36 (KHTML, like Gecko) Chrome/101.0.4951.54 Safari/537.36" etag="oXSWUwVU7GpttTjfJVtZ" version="18.0.3" type="github">
  <diagram id="pQOSE2UiYG_8tL9WPXSO" name="第 1 页">
    <mxGraphModel dx="1236" dy="760" grid="1" gridSize="10" guides="1" tooltips="1" connect="1" arrows="1" fold="1" page="1" pageScale="1" pageWidth="827" pageHeight="1169" background="none" math="0" shadow="0">
      <root>
        <mxCell id="0" />
        <mxCell id="1" parent="0" />
      </root>
    </mxGraphModel>
  </diagram>
</mxfile>
